<?xml version="1.0" encoding="UTF-8" standalone="no"?>
<!-- Created with Inkscape (http://www.inkscape.org/) -->

<svg
   xmlns:dc="http://purl.org/dc/elements/1.1/"
   xmlns:cc="http://creativecommons.org/ns#"
   xmlns:rdf="http://www.w3.org/1999/02/22-rdf-syntax-ns#"
   xmlns:svg="http://www.w3.org/2000/svg"
   xmlns="http://www.w3.org/2000/svg"
   xmlns:sodipodi="http://sodipodi.sourceforge.net/DTD/sodipodi-0.dtd"
   xmlns:inkscape="http://www.inkscape.org/namespaces/inkscape"
   width="1956.4688"
   height="1995.0217"
   id="svg2"
   version="1.1"
   inkscape:version="0.48.4 r9939"
   sodipodi:docname="blog.svg"
   inkscape:export-filename="/Users/tlodge/Downloads/logo(1).png"
   inkscape:export-xdpi="88.543396"
   inkscape:export-ydpi="88.543396">
  <defs
     id="defs4" />
  <sodipodi:namedview
     id="base"
     pagecolor="#ffffff"
     bordercolor="#666666"
     borderopacity="1.0"
     inkscape:pageopacity="0.0"
     inkscape:pageshadow="2"
     inkscape:zoom="0.70710678"
     inkscape:cx="661.21851"
     inkscape:cy="1507.0795"
     inkscape:document-units="px"
     inkscape:current-layer="layer2"
     showgrid="false"
     inkscape:window-width="1280"
     inkscape:window-height="818"
     inkscape:window-x="1681"
     inkscape:window-y="98"
     inkscape:window-maximized="0"
     showguides="false"
     inkscape:guide-bbox="true"
     fit-margin-top="0"
     fit-margin-left="0"
     fit-margin-right="0"
     fit-margin-bottom="0" />
  <metadata
     id="metadata7">
    <rdf:RDF>
      <cc:Work
         rdf:about="">
        <dc:format>image/svg+xml</dc:format>
        <dc:type
           rdf:resource="http://purl.org/dc/dcmitype/StillImage" />
        <dc:title></dc:title>
      </cc:Work>
    </rdf:RDF>
  </metadata>
  <g
     inkscape:groupmode="layer"
     id="layer2"
     inkscape:label="site#"
     transform="translate(44.125,472.99046)">
    <path
       style="fill:#008080;fill-opacity:1;stroke:none"
       d="M 1031.125 265.59375 L 38.34375 297.59375 L 37.9375 348.875 L 1031.125 348.875 L 1031.125 265.59375 z "
       transform="translate(-44.125,-472.99046)"
       id="path3215"
       inkscape:export-filename="/Users/tlodge/cloudcommunities.website/assets/img/blogheader.png"
       inkscape:export-xdpi="88.543396"
       inkscape:export-ydpi="88.543396" />
    <rect
       style="fill:#2ca089;fill-opacity:1;stroke:none;display:inline"
       id="rect4438"
       width="992.02057"
       height="496.72473"
       x="-5.3602896"
       y="-125.51176"
       inkscape:export-filename="/Users/tlodge/cloudcommunities.website/assets/img/logo.png"
       inkscape:export-xdpi="88.543396"
       inkscape:export-ydpi="88.543396"
       ry="0" />
    <path
       style="fill:none;stroke:#008080;stroke-width:1.60000002;stroke-linecap:butt;stroke-linejoin:miter;stroke-miterlimit:4;stroke-opacity:1;stroke-dasharray:9.6, 3.2;stroke-dashoffset:0"
       d="m 128.40905,86.6045 832.97176,-4.24264 0,0"
       id="path4087"
       inkscape:connector-curvature="0" />
    <rect
       style="fill:none;stroke:none"
       id="rect4229"
       width="135"
       height="54.5"
       x="-168.125"
       y="58.031269" />
    <rect
       style="fill:none;stroke:none"
       id="rect4231"
       width="116.5"
       height="42.5"
       x="0.37499505"
       y="62.031269" />
    <rect
       style="fill:none;stroke:none"
       id="rect4235"
       width="125"
       height="42.5"
       x="-198.625"
       y="29.031269" />
    <g
       id="g3145"
       transform="translate(187.5,32.499999)">
      <path
         inkscape:connector-curvature="0"
         id="path3074"
         d="m -179.25886,35.961483 0.15625,42.437498 111.228516,-1.363281 -19.541011,-23.636717 19.03125,-16.375 0.0312,-1.0625 -110.906255,0 z"
         style="fill:#b7c8be;fill-opacity:1;stroke:none"
         sodipodi:nodetypes="cccccccc" />
      <path
         inkscape:connector-curvature="0"
         id="path3076"
         d="m -184.84344,35.9193 0.15625,42.437501 110.062505,0 1.671875,-0.796875 -20.046885,-25.078122 19.00001,-16.375004 0,-0.1875 z"
         style="fill:#008080;fill-opacity:1;stroke:none"
         sodipodi:nodetypes="cccccccc" />
    </g>
    <g
       id="g3141"
       transform="translate(187.5,32.499999)">
      <rect
         y="-157.9687"
         x="-74.125"
         height="194"
         width="5.7502642"
         id="rect3137"
         style="fill:#b7c8be;fill-opacity:1;stroke:none" />
      <rect
         style="fill:#008080;fill-opacity:1;stroke:none"
         id="rect3139"
         width="111.25"
         height="194"
         x="-185.125"
         y="-157.9687" />
    </g>
    <rect
       y="297.03125"
       x="0.87499541"
       height="42.5"
       width="116.5"
       id="rect3149"
       style="fill:none;stroke:none" />
    <g
       transform="matrix(1,0,0,1.3499085,188,322.77458)"
       id="g3157">
      <rect
         style="fill:#b7c8be;fill-opacity:1;stroke:none"
         id="rect3159"
         width="5.7502642"
         height="194"
         x="-74.125"
         y="-157.9687"
         ry="0" />
      <rect
         y="-157.9687"
         x="-185.125"
         height="194"
         width="111.25"
         id="rect3161"
         style="fill:#008080;fill-opacity:1;stroke:none" />
    </g>
  </g>
  <g
     inkscape:label="Layer 1"
     inkscape:groupmode="layer"
     id="layer1"
     transform="translate(22.65625,-14.242383)"
     style="display:inline" />
  <g
     inkscape:groupmode="layer"
     id="layer3"
     inkscape:label="layervec"
     style="display:inline"
     transform="translate(22.65625,294.02532)" />
  <g
     inkscape:groupmode="layer"
     id="layer5"
     inkscape:label="banner"
     style="display:inline"
     transform="translate(22.65625,294.02532)" />
  <g
     inkscape:groupmode="layer"
     id="layer4"
     inkscape:label="clouds"
     style="display:inline"
     transform="translate(22.65625,294.02532)">
    <path
       style="fill:#dee3db;fill-opacity:1;stroke:none;display:inline"
       d="m 15.353954,-190.05583 0.4063,192.1249858 c 0,0 205.291986,30.9785802 307.562486,31.7812502 229.16028,1.79857 684.62496,-62.71874 684.62496,-62.71874 l 0.5312,-161.187496 z"
       id="path4331-2"
       inkscape:export-filename="/Users/tlodge/cloudcommunities.website/assets/img/blogheader.png"
       inkscape:export-xdpi="88.543396"
       inkscape:export-ydpi="88.543396"
       inkscape:connector-curvature="0"
       sodipodi:nodetypes="ccsccc" />
    <path
       style="fill:#ffffff;fill-opacity:1;stroke:#000000;stroke-width:1.42545617;stroke-linecap:butt;stroke-linejoin:miter;stroke-miterlimit:4;stroke-opacity:1;stroke-dasharray:none;display:inline"
       d="m 962.38926,-337.89095 c -2.2903,-10.50221 -15.78815,-16.48382 -25.60152,-19.6071 -10.26426,-3.26681 -28.31815,2.85766 -28.31815,2.85766 0,0 4.63475,6.87161 2.54206,9.31839 -3.11361,3.64045 -12.88248,2.99433 -14.2832,-1.58668 -1.3304,-4.35104 11.59504,-4.44492 10.40368,-8.83609 -2.18624,-8.05841 -24.66975,-4.34291 -24.66975,-4.34291 -21.55001,-5.17989 -57.94943,10.14942 -50.9623,28.27656 1.51595,3.93294 9.60364,-6.10132 12.31414,-2.87343 2.52308,3.00468 2.66847,8.14601 -3.70709,10.02151 -3.13807,0.92313 -3.5521,-2.77376 -6.63547,-3.8131 -9.29098,-3.1318 -12.99801,-0.63468 -22.19424,11.30215 -6.30585,8.18506 18.89113,46.62451 19.95476,28.8879 0.41742,-6.96059 2.86581,-10.58765 6.2776,-9.15532 1.8751,0.7872 -1.17555,5.98656 -1.17555,5.98656 0,0 -6.58673,4.46141 -0.29838,7.24361 18.54231,7.42083 59.00742,10.75096 71.42581,0.0321 5.00735,-4.60911 -2.26443,-5.21923 -7.83483,-9.32379 -1.7681,-1.30282 10.11227,-11.26013 18.75838,-3.67859 3.29245,2.88707 -10.98518,5.76863 -8.92976,9.63525 7.58993,14.27836 33.84016,0.48844 47.93841,-7.43104 9.5666,-5.37387 18.6618,-13.69478 21.2306,-25.1563 1.2183,-5.43562 -0.1351,-12.62823 -3.7466,-16.2776 -2.9469,-2.97787 -11.5519,-1.47978 -11.5519,-1.47978 0,0 4.0204,10.1648 -0.5803,12.00124 -2.1244,0.84802 -4.8518,-0.3764 -5.5316,-2.24687 -1.2572,-3.45936 5.9595,-6.15814 5.1752,-9.75437 z"
       id="path3473-1-0-2-8-5"
       inkscape:connector-curvature="0"
       sodipodi:nodetypes="ascaaacasssssacccssaaaacsaa"
       onclick="window.location='http://www.news.bbc.co.uk';"
       inkscape:export-filename="/Users/tlodge/cloudcommunities.website/assets/img/cloudlinklarge.png"
       inkscape:export-xdpi="88.543396"
       inkscape:export-ydpi="88.543396" />
    <path
       style="fill:#ffffff;fill-opacity:1;stroke:#000000;stroke-width:1.29595041;stroke-linecap:butt;stroke-linejoin:miter;stroke-miterlimit:4;stroke-opacity:1;stroke-dasharray:none;display:inline"
       d="m 201.13429,-332.03972 c -2.08223,-9.54807 -14.35379,-14.98623 -23.27559,-17.82576 -9.33172,-2.97002 -25.74537,2.59804 -25.74537,2.59804 0,0 4.21367,6.24731 2.31111,8.47178 -2.83074,3.3097 -11.71214,2.72229 -12.98555,-1.44252 -1.20953,-3.95574 10.54156,-4.0411 9.45849,-8.03331 -1.98762,-7.3263 -22.42845,-3.94835 -22.42845,-3.94835 -19.59212,-4.70929 -52.68456,9.22733 -46.332253,25.70758 1.37822,3.57561 8.7311,-5.54701 11.19538,-2.61238 2.29385,2.73169 2.42601,7.40592 -3.37028,9.11104 -2.85301,0.83925 -3.2294,-2.52176 -6.03264,-3.46668 -8.446874,-2.84726 -11.817103,-0.57702 -20.177829,10.27533 -5.732981,7.44143 17.174799,42.38857 18.141809,26.26337 0.37948,-6.32821 2.60542,-9.62574 5.70726,-8.32353 1.70475,0.71568 -1.06874,5.44267 -1.06874,5.44267 0,0 -5.9883,4.05606 -0.27127,6.5855 16.857693,6.74663 53.646453,9.77421 64.936603,0.0292 4.55242,-4.19035 -2.05871,-4.74505 -7.12302,-8.4767 -1.60745,-1.18445 9.19355,-10.23712 17.05409,-3.34438 2.99338,2.62478 -9.98711,5.24455 -8.11842,8.75988 6.90037,12.98113 30.76571,0.44406 43.58307,-6.75592 8.69744,-4.88565 16.96637,-12.45059 19.30178,-22.87081 1.10759,-4.94176 -0.12285,-11.48093 -3.40619,-14.79874 -2.67918,-2.70733 -10.50246,-1.34534 -10.50246,-1.34534 0,0 3.65514,9.24132 -0.52752,10.91091 -1.93142,0.77097 -4.41101,-0.3422 -5.02902,-2.04274 -1.14303,-3.14507 5.41801,-5.59867 4.70501,-8.86817 z"
       id="path3473-1-0-2-8-5-7"
       inkscape:connector-curvature="0"
       sodipodi:nodetypes="ascaaacasssssacccssaaaacsaa"
       onclick="window.location='http://www.news.bbc.co.uk';"
       inkscape:export-filename="/Users/tlodge/cloudcommunities.website/assets/img/cloudlink.png"
       inkscape:export-xdpi="88.543396"
       inkscape:export-ydpi="88.543396" />
    <text
       xml:space="preserve"
       style="font-size:189.85290527px;font-style:normal;font-variant:normal;font-weight:500;font-stretch:normal;text-align:start;line-height:125%;letter-spacing:0px;word-spacing:0px;writing-mode:lr-tb;text-anchor:start;fill:#000000;fill-opacity:1;stroke:none;display:inline;font-family:Bauhaus 93;-inkscape-font-specification:Bauhaus 93"
       x="556.51801"
       y="75.588005"
       id="text4315-9-6-4-3"
       sodipodi:linespacing="125%"
       transform="matrix(0.9951876,-0.09798798,0.09798798,0.9951876,0,0)"
       inkscape:transform-center-x="68.660622"
       inkscape:transform-center-y="2.2520158"
       inkscape:export-filename="/Users/tlodge/cloudcommunities.website/assets/img/blogheader.png"
       inkscape:export-xdpi="88.543396"
       inkscape:export-ydpi="88.543396"><tspan
         sodipodi:role="line"
         id="tspan4317-4-1-2-2"
         x="556.51801"
         y="75.588005"
         style="font-size:189.85290527px;font-style:normal;font-variant:normal;font-weight:normal;font-stretch:normal;fill:#000000;font-family:Trebuchet MS;-inkscape-font-specification:Trebuchet MS">blog</tspan></text>
    <text
       xml:space="preserve"
       style="font-size:48px;font-style:normal;font-variant:normal;font-weight:500;font-stretch:normal;text-align:start;line-height:125%;letter-spacing:0px;word-spacing:0px;writing-mode:lr-tb;text-anchor:start;fill:#000000;fill-opacity:1;stroke:none;display:inline;font-family:Bauhaus 93;-inkscape-font-specification:Bauhaus 93"
       x="745.05042"
       y="-321.15213"
       id="text4315-9-6-4-3-2"
       sodipodi:linespacing="125%"
       transform="matrix(0.9951876,-0.09798798,0.09798798,0.9951876,0,0)"
       inkscape:transform-center-x="17.359257"
       inkscape:transform-center-y="0.56936856"><tspan
         sodipodi:role="line"
         id="tspan4317-4-1-2-2-1"
         x="745.05042"
         y="-321.15213"
         style="font-size:48px;font-style:normal;font-variant:normal;font-weight:normal;font-stretch:normal;fill:#000000;font-family:Trebuchet MS;-inkscape-font-specification:Trebuchet MS">documents</tspan></text>
    <path
       sodipodi:nodetypes="ascaaacaaaassacccaaaaaacsaa"
       inkscape:connector-curvature="0"
       id="path3283"
       d="m 118.40549,92.837459 c -1.31748,-8.54762 -8.44124,-12.06227 -13.68783,-14.34783 -5.48781,-2.39059 -17.026333,1.3536 -17.026333,1.3536 0,0 -2.31682,6.14765 -1.33539,8.66276 1.21385,3.11046 5.02819,4.69544 6.67698,2.16582 1.14337,-1.75411 0.39183,-5.69278 -0.6677,-7.58002 -3.85237,-6.862 -16.6923,-6.49712 -16.6923,-6.49712 -10.713451,-0.47139 -22.319581,1.61951 -26.70797,15.15987 -1.18073,3.64283 -0.13354,9.691681 2.0031,11.911501 2.279979,2.36838 7.875469,2.21981 8.012219,-2.16583 0.12847,-4.110181 -4.81302,-3.533561 -7.344529,-3.248561 -5.07282,0.5713 -9.10488,1.01075 -14.02168,9.745671 -3.3713,5.98954 -0.0169,25.76644 8.51308,20.03289 3.18721,-2.14324 9.296739,-4.9933 8.179399,-10.28722 -0.43257,-2.04885 -4.006359,0 -4.006359,0 0,0 -4.69723,15.28989 -1.33523,17.3257 9.913559,5.43036 32.08692,6.76081 38.72638,-1.08273 2.67705,-3.37288 6.08265,-10.81444 4.00619,-15.16005 -1.79315,-3.75265 -7.94392,-2.42935 -8.68008,2.16564 -0.63812,3.98329 3.57109,6.44 6.00929,7.58002 8.596923,4.01947 18.622723,1.88229 26.707973,-4.33128 4.83532,-3.71628 9.97728,-10.02149 11.35089,-18.40861 0.65113,-3.9776 -0.0727,-9.240851 -2.0031,-11.911311 -1.5756,-2.17923 -6.17631,-1.08291 -6.17631,-1.08291 0,0 1.95898,10.567441 -0.50069,11.911311 -1.13576,0.62051 -2.93703,-0.33422 -3.33849,-2.16565 -0.7676,-3.501611 3.89412,-6.140481 3.33849,-9.745661 z"
       style="fill:#ffffff;stroke:#000000;stroke-width:2.35578036;stroke-linecap:butt;stroke-linejoin:miter;stroke-miterlimit:4;stroke-opacity:1;stroke-dasharray:none;display:inline"
       inkscape:export-filename="/Users/tlodge/cloudcommunities.website/assets/img/minicloud.png"
       inkscape:export-xdpi="88.543396"
       inkscape:export-ydpi="88.543396"
       inkscape:transform-center-x="-126.69944" />
    <text
       xml:space="preserve"
       style="font-size:48px;font-style:normal;font-variant:normal;font-weight:normal;font-stretch:normal;text-align:start;line-height:125%;letter-spacing:0px;word-spacing:0px;writing-mode:lr-tb;text-anchor:start;fill:#000000;fill-opacity:1;stroke:none;font-family:Trebuchet MS;-inkscape-font-specification:Trebuchet MS"
       x="173.62584"
       y="105.28371"
       id="text3309"
       sodipodi:linespacing="125%"
       transform="scale(0.9977896,1.0022153)"><tspan
         sodipodi:role="line"
         id="tspan3311"
         x="173.62584"
         y="105.28371"
         style="fill:#ffffff">Microsoft Internship</tspan></text>
    <text
       xml:space="preserve"
       style="font-size:40px;font-style:normal;font-variant:normal;font-weight:normal;font-stretch:normal;text-align:start;line-height:125%;letter-spacing:0px;word-spacing:0px;writing-mode:lr-tb;text-anchor:start;fill:#000000;fill-opacity:1;stroke:none;font-family:Children Once Where;-inkscape-font-specification:Children Once Where"
       x="1578.2623"
       y="1312.6083"
       id="text3313"
       sodipodi:linespacing="125%"
       transform="translate(-7.1875,-238.92468)"><tspan
         sodipodi:role="line"
         id="tspan3315"
         x="1578.2623"
         y="1312.6083" /></text>
    <text
       xml:space="preserve"
       style="font-size:40px;font-style:normal;font-variant:normal;font-weight:normal;font-stretch:normal;text-align:start;line-height:125%;letter-spacing:0px;word-spacing:0px;writing-mode:lr-tb;text-anchor:start;fill:#000000;fill-opacity:1;stroke:none;font-family:Children Once Where;-inkscape-font-specification:Children Once Where"
       x="2061.9233"
       y="966.12604"
       id="text3321"
       sodipodi:linespacing="125%"
       transform="translate(-7.1875,-238.92468)"><tspan
         sodipodi:role="line"
         id="tspan3323"
         x="2061.9233"
         y="966.12604" /></text>
    <text
       xml:space="preserve"
       style="font-size:32px;font-style:normal;font-variant:normal;font-weight:normal;font-stretch:normal;text-align:start;line-height:125%;letter-spacing:0px;word-spacing:0px;writing-mode:lr-tb;text-anchor:start;fill:#000000;fill-opacity:1;stroke:none;font-family:Trebuchet MS;-inkscape-font-specification:Trebuchet MS"
       x="32.777584"
       y="178.28552"
       id="text3329"
       sodipodi:linespacing="125%"
       transform="scale(0.9977896,1.0022153)"><tspan
         style="font-size:32px;fill:#ffffff"
         sodipodi:role="line"
         id="tspan3331"
         x="32.777584"
         y="178.28552">10 Oct</tspan><tspan
         style="font-size:32px;fill:#ffffff"
         sodipodi:role="line"
         x="32.777584"
         y="218.28552"
         id="tspan4032"> 2013</tspan></text>
    <path
       inkscape:export-ydpi="88.543396"
       inkscape:export-xdpi="88.543396"
       inkscape:export-filename="/Users/tlodge/cloudcommunities.website/assets/img/cloudlink.png"
       onclick="window.location='http://www.news.bbc.co.uk';"
       sodipodi:nodetypes="ascaaacasssssacccssaaaacsaa"
       inkscape:connector-curvature="0"
       id="path4440"
       d="m 372.36474,-331.69658 c -2.08223,-9.54807 -14.35379,-14.98623 -23.27559,-17.82576 -9.33172,-2.97002 -25.74537,2.59804 -25.74537,2.59804 0,0 4.21367,6.24731 2.31111,8.47178 -2.83074,3.3097 -11.71214,2.72229 -12.98555,-1.44252 -1.20953,-3.95574 10.54156,-4.0411 9.45849,-8.03331 -1.98762,-7.3263 -22.42845,-3.94835 -22.42845,-3.94835 -19.59213,-4.70929 -52.68457,9.22733 -46.33226,25.70758 1.37822,3.57561 8.7311,-5.54701 11.19538,-2.61238 2.29385,2.73169 2.42601,7.40592 -3.37028,9.11104 -2.85301,0.83925 -3.2294,-2.52176 -6.03264,-3.46668 -8.44687,-2.84726 -11.8171,-0.57702 -20.17783,10.27533 -5.73298,7.44143 17.1748,42.38857 18.14181,26.26337 0.37948,-6.32821 2.60542,-9.62574 5.70726,-8.32353 1.70475,0.71568 -1.06874,5.44267 -1.06874,5.44267 0,0 -5.9883,4.05606 -0.27127,6.5855 16.85769,6.74663 53.64646,9.77421 64.93661,0.0292 4.55242,-4.19035 -2.05871,-4.74505 -7.12302,-8.4767 -1.60745,-1.18445 9.19355,-10.23712 17.05409,-3.34438 2.99338,2.62478 -9.98711,5.24455 -8.11842,8.75988 6.90037,12.98113 30.76571,0.44406 43.58307,-6.75592 8.69744,-4.88565 16.96637,-12.45059 19.30178,-22.87081 1.10759,-4.94176 -0.12285,-11.48093 -3.40619,-14.79874 -2.67918,-2.70733 -10.50246,-1.34534 -10.50246,-1.34534 0,0 3.65514,9.24132 -0.52752,10.91091 -1.93142,0.77097 -4.41101,-0.3422 -5.02902,-2.04274 -1.14303,-3.14507 5.41801,-5.59867 4.70501,-8.86817 z"
       style="fill:#ffffff;fill-opacity:1;stroke:#000000;stroke-width:1.29595041;stroke-linecap:butt;stroke-linejoin:miter;stroke-miterlimit:4;stroke-opacity:1;stroke-dasharray:none;display:inline" />
    <path
       style="fill:#ffffff;fill-opacity:1;stroke:#000000;stroke-width:1.29595041;stroke-linecap:butt;stroke-linejoin:miter;stroke-miterlimit:4;stroke-opacity:1;stroke-dasharray:none;display:inline"
       d="m 560.0216,-334.18186 c -2.08223,-9.54807 -14.35379,-14.98623 -23.27559,-17.82576 -9.33172,-2.97002 -25.74537,2.59804 -25.74537,2.59804 0,0 4.21367,6.24731 2.31111,8.47178 -2.83074,3.3097 -11.71214,2.72229 -12.98555,-1.44252 -1.20953,-3.95574 10.54156,-4.0411 9.45849,-8.03331 -1.98762,-7.3263 -22.42845,-3.94835 -22.42845,-3.94835 -19.59213,-4.70929 -52.68457,9.22733 -46.33226,25.70758 1.37822,3.57561 8.7311,-5.54701 11.19538,-2.61238 2.29385,2.73169 2.42601,7.40592 -3.37028,9.11104 -2.85301,0.83925 -3.2294,-2.52176 -6.03264,-3.46668 -8.44687,-2.84726 -11.8171,-0.57702 -20.17783,10.27533 -5.73298,7.44143 17.1748,42.38857 18.14181,26.26337 0.37948,-6.32821 2.60542,-9.62574 5.70726,-8.32353 1.70475,0.71568 -1.06874,5.44267 -1.06874,5.44267 0,0 -5.9883,4.05606 -0.27127,6.5855 16.85769,6.74663 53.64646,9.77421 64.93661,0.0292 4.55242,-4.19035 -2.05871,-4.74505 -7.12302,-8.4767 -1.60745,-1.18445 9.19355,-10.23712 17.05409,-3.34438 2.99338,2.62478 -9.98711,5.24455 -8.11842,8.75988 6.90037,12.98113 30.76571,0.44406 43.58307,-6.75592 8.69744,-4.88565 16.96637,-12.45059 19.30178,-22.87081 1.10759,-4.94176 -0.12285,-11.48093 -3.40619,-14.79874 -2.67918,-2.70733 -10.50246,-1.34534 -10.50246,-1.34534 0,0 3.65514,9.24132 -0.52752,10.91091 -1.93142,0.77097 -4.41101,-0.3422 -5.02902,-2.04274 -1.14303,-3.14507 5.41801,-5.59867 4.70501,-8.86817 z"
       id="path4442"
       inkscape:connector-curvature="0"
       sodipodi:nodetypes="ascaaacasssssacccssaaaacsaa"
       onclick="window.location='http://www.news.bbc.co.uk';"
       inkscape:export-filename="/Users/tlodge/cloudcommunities.website/assets/img/cloudlink.png"
       inkscape:export-xdpi="88.543396"
       inkscape:export-ydpi="88.543396" />
    <path
       inkscape:export-ydpi="88.543396"
       inkscape:export-xdpi="88.543396"
       inkscape:export-filename="/Users/tlodge/cloudcommunities.website/assets/img/cloudlink.png"
       onclick="window.location='http://www.news.bbc.co.uk';"
       sodipodi:nodetypes="ascaaacasssssacccssaaaacsaa"
       inkscape:connector-curvature="0"
       id="path4444"
       d="m 753.43581,-328.28236 c -2.08223,-9.54807 -14.35379,-14.98623 -23.27559,-17.82576 -9.33172,-2.97002 -25.74537,2.59804 -25.74537,2.59804 0,0 4.21367,6.24731 2.31111,8.47178 -2.83074,3.3097 -11.71214,2.72229 -12.98555,-1.44252 -1.20953,-3.95574 10.54156,-4.0411 9.45849,-8.03331 -1.98762,-7.3263 -22.42845,-3.94835 -22.42845,-3.94835 -19.59213,-4.70929 -52.68457,9.22733 -46.33226,25.70758 1.37822,3.57561 8.7311,-5.54701 11.19538,-2.61238 2.29385,2.73169 2.42601,7.40592 -3.37028,9.11104 -2.85301,0.83925 -3.2294,-2.52176 -6.03264,-3.46668 -8.44687,-2.84726 -11.8171,-0.57702 -20.17783,10.27533 -5.73298,7.44143 17.1748,42.38857 18.14181,26.26337 0.37948,-6.32821 2.60542,-9.62574 5.70726,-8.32353 1.70475,0.71568 -1.06874,5.44267 -1.06874,5.44267 0,0 -5.9883,4.05606 -0.27127,6.5855 16.85769,6.74663 53.64646,9.77421 64.93661,0.0292 4.55242,-4.19035 -2.05871,-4.74505 -7.12302,-8.4767 -1.60745,-1.18445 9.19355,-10.23712 17.05409,-3.34438 2.99338,2.62478 -9.98711,5.24455 -8.11842,8.75988 6.90037,12.98113 30.76571,0.44406 43.58307,-6.75592 8.69744,-4.88565 16.96637,-12.45059 19.30178,-22.87081 1.10759,-4.94176 -0.12285,-11.48093 -3.40619,-14.79874 -2.67918,-2.70733 -10.50246,-1.34534 -10.50246,-1.34534 0,0 3.65514,9.24132 -0.52752,10.91091 -1.93142,0.77097 -4.41101,-0.3422 -5.02902,-2.04274 -1.14303,-3.14507 5.41801,-5.59867 4.70501,-8.86817 z"
       style="fill:#ffffff;fill-opacity:1;stroke:#000000;stroke-width:1.29595041;stroke-linecap:butt;stroke-linejoin:miter;stroke-miterlimit:4;stroke-opacity:1;stroke-dasharray:none;display:inline" />
    <text
       xml:space="preserve"
       style="font-size:20.34031105px;font-style:normal;font-variant:normal;font-weight:normal;font-stretch:normal;text-align:start;line-height:125%;letter-spacing:0px;word-spacing:0px;writing-mode:lr-tb;text-anchor:start;fill:#000000;fill-opacity:1;stroke:none;font-family:Trebuchet MS;-inkscape-font-specification:Trebuchet MS"
       x="-1898.344"
       y="606.18542"
       id="text4167"
       sodipodi:linespacing="125%"
       transform="scale(0.9977896,1.0022153)"
       inkscape:export-filename="/Users/tlodge/cloudcommunities.website/assets/img/infoback.png"
       inkscape:export-xdpi="88.543396"
       inkscape:export-ydpi="88.543396"><tspan
         sodipodi:role="line"
         x="-1898.344"
         y="606.18542"
         id="tspan4171"
         style="font-size:25.0483284px">... a project looking at how technology can </tspan><tspan
         sodipodi:role="line"
         x="-1898.344"
         y="637.49585"
         id="tspan4173"
         style="font-size:25.0483284px">better support <tspan
   style="font-size:25.0483284px;font-weight:bold;fill:#ffffff;-inkscape-font-specification:Trebuchet MS Bold"
   id="tspan4213">high-density</tspan> and <tspan
   style="font-size:25.0483284px;font-weight:bold;fill:#ffffff;-inkscape-font-specification:Trebuchet MS Bold"
   id="tspan4211">high-rise </tspan></tspan><tspan
         sodipodi:role="line"
         x="-1898.344"
         y="668.80627"
         id="tspan4175"
         style="font-size:25.0483284px">residential <tspan
   style="font-size:25.0483284px;fill:#ffffff"
   id="tspan4215"><tspan
   style="font-size:25.0483284px;font-weight:bold;-inkscape-font-specification:Trebuchet MS Bold"
   id="tspan4235">communities</tspan>.  </tspan>The tools available </tspan><tspan
         sodipodi:role="line"
         x="-1898.344"
         y="700.11664"
         style="font-size:25.0483284px"
         id="tspan4195">to tenants are currently quite limited in spite </tspan><tspan
         sodipodi:role="line"
         x="-1898.344"
         y="731.42706"
         id="tspan4177"
         style="font-size:25.0483284px">of the many <tspan
   style="font-size:25.0483284px;font-weight:bold;fill:#ffffff;-inkscape-font-specification:Trebuchet MS Bold"
   id="tspan4217"> challenges</tspan> and <tspan
   style="font-size:25.0483284px;font-weight:bold;fill:#ffffff;-inkscape-font-specification:Trebuchet MS Bold"
   id="tspan4219">problems</tspan> that come </tspan><tspan
         sodipodi:role="line"
         x="-1898.344"
         y="762.73749"
         id="tspan4179"
         style="font-size:25.0483284px">from high-rise living.  This project will <tspan
   style="font-size:25.0483284px;font-weight:bold;fill:#ffffff;-inkscape-font-specification:Trebuchet MS Bold"
   id="tspan4223">design</tspan>, <tspan
   style="font-size:25.0483284px;font-weight:bold;fill:#ffffff;-inkscape-font-specification:Trebuchet MS Bold"
   id="tspan4225">test </tspan></tspan><tspan
         sodipodi:role="line"
         x="-1898.344"
         y="794.04791"
         id="tspan4181"
         style="font-size:25.0483284px">and <tspan
   style="font-size:25.0483284px;font-weight:bold;fill:#ffffff;-inkscape-font-specification:Trebuchet MS Bold"
   id="tspan4227">evaluate</tspan> solutions to meet the specific </tspan><tspan
         sodipodi:role="line"
         x="-1898.344"
         y="825.35828"
         style="font-size:25.0483284px"
         id="tspan4077">needs of these communities.</tspan></text>
    <text
       xml:space="preserve"
       style="font-size:19.73954964px;font-style:normal;font-variant:normal;font-weight:normal;font-stretch:normal;text-align:start;line-height:125%;letter-spacing:0px;word-spacing:0px;writing-mode:lr-tb;text-anchor:start;fill:#000000;fill-opacity:1;stroke:none;font-family:Trebuchet MS;-inkscape-font-specification:Trebuchet MS"
       x="148.82928"
       y="1361.2096"
       id="text4251"
       sodipodi:linespacing="125%"
       transform="scale(0.9977896,1.0022153)"
       inkscape:export-filename="/Users/tlodge/cloudcommunities.website/assets/img/infoback.png"
       inkscape:export-xdpi="88.543396"
       inkscape:export-ydpi="88.543396"><tspan
         sodipodi:role="line"
         id="tspan4253"
         x="148.82928"
         y="1361.2096">READ THE FULL PROPOSAL</tspan></text>
    <text
       xml:space="preserve"
       style="font-size:20px;font-style:normal;font-variant:normal;font-weight:normal;font-stretch:normal;text-align:start;line-height:125%;letter-spacing:0px;word-spacing:0px;writing-mode:lr-tb;text-anchor:start;fill:#000000;fill-opacity:1;stroke:none;font-family:Trebuchet MS;-inkscape-font-specification:Trebuchet MS"
       x="173.96851"
       y="142.1844"
       id="text3333"
       sodipodi:linespacing="125%"
       transform="scale(0.9977896,1.0022153)"><tspan
         sodipodi:role="line"
         x="173.96851"
         y="142.1844"
         id="tspan3361"
         style="font-size:20px;fill:#000000">An exciting opportunity for a 3-month internship at Microsoft, Cambridge.  It starts in </tspan><tspan
         sodipodi:role="line"
         x="173.96851"
         y="167.1844"
         id="tspan3252"
         style="font-size:20px;fill:#000000">March and will look into all sorts of interesting things to do with this and that.  We'd </tspan><tspan
         sodipodi:role="line"
         x="173.96851"
         y="192.1844"
         id="tspan3254"
         style="font-size:20px;fill:#000000">encourage any PhD student with an interest in our porject to send us their cv and </tspan><tspan
         sodipodi:role="line"
         x="173.96851"
         y="217.1844"
         id="tspan3256"
         style="font-size:20px;fill:#000000">something about why they like what they see and what they could bring to the project!</tspan></text>
    <path
       inkscape:transform-center-x="-126.69944"
       inkscape:export-ydpi="88.543396"
       inkscape:export-xdpi="88.543396"
       inkscape:export-filename="/Users/tlodge/cloudcommunities.website/assets/img/minicloud.png"
       style="fill:#ffffff;stroke:#000000;stroke-width:2.35578036;stroke-linecap:butt;stroke-linejoin:miter;stroke-miterlimit:4;stroke-opacity:1;stroke-dasharray:none;display:inline"
       d="m 117.83442,330.3568 c -1.31748,-8.54762 -8.44124,-12.06227 -13.68783,-14.34783 -5.487806,-2.39059 -17.026326,1.3536 -17.026326,1.3536 0,0 -2.31683,6.14765 -1.3354,8.66276 1.21386,3.11046 5.0282,4.69544 6.67699,2.16582 1.14337,-1.75411 0.39183,-5.69278 -0.6677,-7.58002 -3.85237,-6.862 -16.69231,-6.49712 -16.69231,-6.49712 -10.713449,-0.47139 -22.319579,1.61951 -26.707969,15.15987 -1.18073,3.64283 -0.13354,9.69168 2.0031,11.9115 2.27998,2.36838 7.87547,2.21981 8.01222,-2.16583 0.12847,-4.11018 -4.81302,-3.53356 -7.34453,-3.24856 -5.07282,0.5713 -9.10488,1.01075 -14.02165,9.74567 -3.3713,5.98954 -0.017,25.76643 8.51305,20.03288 3.18721,-2.14324 9.29674,-4.9933 8.1794,-10.28721 -0.43257,-2.04885 -4.00636,0 -4.00636,0 0,0 -4.69723,15.28988 -1.33523,17.32569 9.91356,5.43036 32.086919,6.76081 38.726389,-1.08273 2.67705,-3.37288 6.08265,-10.81444 4.00619,-15.16004 -1.79315,-3.75265 -7.94393,-2.42935 -8.68009,2.16564 -0.63812,3.98328 3.57109,6.43999 6.0093,7.58001 8.59692,4.01947 18.622716,1.88229 26.707966,-4.33128 4.83532,-3.71627 9.97728,-10.02148 11.35089,-18.4086 0.65113,-3.9776 -0.0727,-9.24085 -2.0031,-11.91131 -1.5756,-2.17923 -6.17631,-1.08291 -6.17631,-1.08291 0,0 1.95898,10.56744 -0.50069,11.91131 -1.13576,0.62051 -2.93703,-0.33422 -3.33849,-2.16565 -0.7676,-3.50161 3.89412,-6.14048 3.33849,-9.74566 z"
       id="path4034"
       inkscape:connector-curvature="0"
       sodipodi:nodetypes="ascaaacaaaassacccaaaaaacsaa" />
    <text
       transform="scale(0.9977896,1.0022153)"
       sodipodi:linespacing="125%"
       id="text4036"
       y="338.51425"
       x="165.12173"
       style="font-size:48px;font-style:normal;font-variant:normal;font-weight:normal;font-stretch:normal;text-align:start;line-height:125%;letter-spacing:0px;word-spacing:0px;writing-mode:lr-tb;text-anchor:start;fill:#000000;fill-opacity:1;stroke:none;font-family:Trebuchet MS;-inkscape-font-specification:Trebuchet MS"
       xml:space="preserve"><tspan
         y="338.51425"
         x="165.12173"
         id="tspan4038"
         sodipodi:role="line"
         style="fill:#ffffff">We've received the nod!</tspan></text>
    <text
       transform="scale(0.9977896,1.0022153)"
       sodipodi:linespacing="125%"
       id="text4040"
       y="415.27972"
       x="32.205231"
       style="font-size:32px;font-style:normal;font-variant:normal;font-weight:normal;font-stretch:normal;text-align:start;line-height:125%;letter-spacing:0px;word-spacing:0px;writing-mode:lr-tb;text-anchor:start;fill:#000000;fill-opacity:1;stroke:none;font-family:Trebuchet MS;-inkscape-font-specification:Trebuchet MS"
       xml:space="preserve"><tspan
         y="415.27972"
         x="32.205231"
         id="tspan4042"
         sodipodi:role="line"
         style="font-size:32px;fill:#ffffff">15 Oct</tspan><tspan
         id="tspan4044"
         y="455.27972"
         x="32.205231"
         sodipodi:role="line"
         style="font-size:32px;fill:#ffffff"> 2013</tspan></text>
    <flowRoot
       xml:space="preserve"
       id="flowRoot4076"
       style="fill:black;stroke:none;stroke-opacity:1;stroke-width:1px;stroke-linejoin:miter;stroke-linecap:butt;fill-opacity:1;font-family:Children Once Where;font-style:normal;font-weight:normal;font-size:40px;line-height:125%;letter-spacing:0px;word-spacing:0px;-inkscape-font-specification:Children Once Where;font-stretch:normal;font-variant:normal;text-anchor:start;text-align:start;writing-mode:lr"><flowRegion
         id="flowRegion4078"><rect
           id="rect4080"
           width="74.953316"
           height="41.012192"
           x="83.438599"
           y="498.78378" /></flowRegion><flowPara
         id="flowPara4082" /></flowRoot>    <text
       transform="scale(0.9977896,1.0022153)"
       sodipodi:linespacing="125%"
       id="text4041"
       y="370.78058"
       x="166.88177"
       style="font-size:20px;font-style:normal;font-variant:normal;font-weight:normal;font-stretch:normal;text-align:start;line-height:125%;letter-spacing:0px;word-spacing:0px;writing-mode:lr-tb;text-anchor:start;fill:#000000;fill-opacity:1;stroke:none;font-family:Trebuchet MS;-inkscape-font-specification:Trebuchet MS"
       xml:space="preserve"><tspan
         style="font-size:20px;fill:#000000"
         id="tspan4043"
         y="370.78058"
         x="166.88177"
         sodipodi:role="line">An exciting opportunity for a 3-month internship at Microsoft, Cambridge.  It starts in </tspan><tspan
         style="font-size:20px;fill:#000000"
         id="tspan4045"
         y="395.78058"
         x="166.88177"
         sodipodi:role="line">March and will look into all sorts of interesting things to do with this and that.  We'd </tspan><tspan
         style="font-size:20px;fill:#000000"
         id="tspan4047"
         y="420.78058"
         x="166.88177"
         sodipodi:role="line">encourage any PhD student with an interest in our porject to send us their cv and </tspan><tspan
         style="font-size:20px;fill:#000000"
         id="tspan4049"
         y="445.78058"
         x="166.88177"
         sodipodi:role="line">something about why they like what they see and what they could bring to the project!</tspan></text>
    <text
       xml:space="preserve"
       style="display:inline;font-size:60.26125717000000000px;font-style:normal;font-variant:normal;font-weight:normal;font-stretch:normal;text-align:start;line-height:125%;letter-spacing:0px;word-spacing:0px;writing-mode:lr-tb;text-anchor:start;fill:#ffffff;fill-opacity:1;stroke:none;font-family:Trebuchet MS;-inkscape-font-specification:Trebuchet MS"
       x="51.862057"
       y="-83.670479"
       id="text4315"
       sodipodi:linespacing="125%"
       transform="matrix(0.99937747,-0.03527981,0.03527981,0.99937747,0,0)"
       inkscape:export-filename="/Users/tlodge/cloudcommunities.website/assets/img/blogheader.png"
       inkscape:export-xdpi="88.543396"
       inkscape:export-ydpi="88.543396"><tspan
         sodipodi:role="line"
         id="tspan4317"
         x="51.862057"
         y="-83.670479">COMMUNITIES</tspan></text>
    <text
       xml:space="preserve"
       style="display:inline;font-size:50.21771622000000000px;font-style:normal;font-variant:normal;font-weight:500;font-stretch:normal;text-align:start;line-height:125%;letter-spacing:0px;word-spacing:0px;writing-mode:lr-tb;text-anchor:start;fill:#ffffff;fill-opacity:1;stroke:none;font-family:Futura;-inkscape-font-specification:Futura Medium"
       x="66.135551"
       y="-24.812187"
       id="text4323"
       sodipodi:linespacing="125%"
       transform="matrix(0.99820813,-0.05983747,0.05983747,0.99820813,0,0)"
       inkscape:export-filename="/Users/tlodge/cloudcommunities.website/assets/img/blogheader.png"
       inkscape:export-xdpi="88.543396"
       inkscape:export-ydpi="88.543396"><tspan
         sodipodi:role="line"
         id="tspan4325"
         x="66.135551"
         y="-24.812187"
         style="font-size:50.21771622px;font-style:normal;font-variant:normal;font-weight:500;font-stretch:normal;text-align:start;line-height:125%;letter-spacing:0px;writing-mode:lr-tb;text-anchor:start;fill:#ffffff;font-family:Trebuchet MS;-inkscape-font-specification:Trebuchet MS">in the</tspan></text>
    <path
       sodipodi:nodetypes="assaacassaassaaccaaaaaacsaa"
       inkscape:connector-curvature="0"
       id="path4329"
       d="M 464.41829,-60.047809 C 462.3036,-76.619929 441.14907,-85.8259 424.944,-91.31426 c -16.94957,-5.74061 -34.07891,-3.82702 -54.26264,2.75492 -4.472,1.45831 -9.34469,8.552671 -6.67283,12.433881 3.41985,4.9679 13.44833,1.83378 18.04542,-2.10861 1.61662,-1.38639 2.88932,-4.391871 1.70018,-6.158621 -31.58593,-22.00514 -72.94327,-11.74684 -108.90005,-6.3372 -10.27728,1.5462 -20.9648,6.96259 -29.21532,10.889591 -5.80591,2.76347 -4.95951,17.4649 2.43205,19.10066 2.8516,0.63106 5.0564,-1.74023 5.84427,-3.94471 0.31598,-0.88412 0.0202,-2.25614 -0.8143,-2.69784 -14.06973,-7.44656 -28.85611,-0.50648 -45.64699,14.05807 -11.51356,9.98695 -3.84522,46.68328 23.88498,38.48392 10.36488,-3.06495 21.28124,-5.05779 19.39233,-12.47857 -0.64937,-2.55103 -5.85947,-2.30764 -7.92269,-0.64519 -6.96738,5.61395 -13.86099,22.05349 -3.56122,26.60571 30.45523,12.38489 100.16953,20.48914 122.26055,7.98181 8.93844,-5.42379 21.7944,-19.0359 14.86815,-26.44002 -4.20841,-4.49869 -15.30115,1.80744 -16.80544,7.75725 -0.94008,3.71824 3.48148,7.51766 6.94661,9.21546 25.37602,12.43315 58.43798,8.19227 84.8466,-0.99037 15.7939,-5.49175 32.93672,-15.59604 38.50458,-30.44033 2.64056,-7.03985 1.13587,-16.76234 -4.55785,-22.0968 -4.64606,-4.35299 -19.31321,-3.54797 -19.31321,-3.54797 0,0 6.5244,13.68913 -1.42919,15.49247 -3.67266,0.83272 -8.05771,-1.05129 -8.83184,-4.19889 -1.14063,-4.63766 9.28641,-6.68672 8.68214,-11.42217 z"
       style="display:inline;fill:#ffffff;stroke:#000000;stroke-width:1.99633657999999990;stroke-linecap:butt;stroke-linejoin:miter;stroke-miterlimit:4;stroke-opacity:1;stroke-dasharray:none"
       inkscape:export-filename="/Users/tlodge/cloudcommunities.website/assets/img/blogheader.png"
       inkscape:export-xdpi="88.543396"
       inkscape:export-ydpi="88.543396" />
    <text
       xml:space="preserve"
       style="display:inline;font-size:53.98404693999999900px;font-style:normal;font-variant:normal;font-weight:500;font-stretch:normal;text-align:start;line-height:125%;letter-spacing:0px;word-spacing:0px;writing-mode:lr-tb;text-anchor:start;fill:#000000;fill-opacity:1;stroke:none;font-family:Futura;-inkscape-font-specification:Futura Medium"
       x="251.9576"
       y="-14.201351"
       id="text4319"
       sodipodi:linespacing="125%"
       transform="matrix(0.99921822,-0.03953418,0.03953418,0.99921822,0,0)"
       inkscape:transform-center-x="11.87406"
       inkscape:transform-center-y="-27.290948"
       inkscape:export-filename="/Users/tlodge/cloudcommunities.website/assets/img/blogheader.png"
       inkscape:export-xdpi="88.543396"
       inkscape:export-ydpi="88.543396"><tspan
         sodipodi:role="line"
         id="tspan4321"
         x="251.9576"
         y="-14.201351"
         style="font-size:53.98404694px;font-style:normal;font-variant:normal;font-weight:normal;font-stretch:normal;fill:#000000;fill-opacity:1;font-family:Trebuchet MS;-inkscape-font-specification:Trebuchet MS">CLOUDS</tspan></text>
  </g>
</svg>
